<svg width="233" height="58" viewBox="0 0 233 58" fill="none" xmlns="http://www.w3.org/2000/svg">
<path d="M42.6 16.6C37.4 16.6 33.4 18.3 30.8 21.8C28.1 18.3 24.2 16.6 18.9 16.6C14.5 16.6 10.8 18.2 7.7 21.3C4.6 24.4 3 28.2 3 32.6V50.9C3 52 3.4 53 4.2 53.7C5 54.5 5.9 54.9 7 54.9H7.1C8.2 54.9 9.1 54.5 9.9 53.7C10.7 52.9 11.1 52 11.1 50.9V32.6C11.1 30.4 11.9 28.6 13.4 27.1C14.9 25.6 16.8 24.8 18.9 24.8C21.1 24.8 22.9 25.6 24.4 27.1C25.9 28.6 26.7 30.5 26.7 32.6V50.9C26.7 52 27.1 53 27.9 53.7C28.7 54.5 29.6 54.9 30.7 54.9H30.8C31.9 54.9 32.9 54.5 33.6 53.7C34.4 52.9 34.8 52 34.8 50.9V32.6C34.8 30.4 35.6 28.6 37.1 27.1C38.6 25.6 40.5 24.8 42.6 24.8C44.8 24.8 46.6 25.6 48.2 27.1C49.7 28.6 50.5 30.5 50.5 32.6V50.9C50.5 52 50.9 53 51.7 53.7C52.4 54.5 53.4 54.9 54.5 54.9H54.6C55.7 54.9 56.6 54.5 57.4 53.7C58.2 52.9 58.6 52 58.6 50.9V32.6C58.6 28.2 57 24.5 53.9 21.3C50.7 18.2 47 16.6 42.6 16.6ZM176.8 16.6C175 16.6 173.7 17.4 173 19.1L162.5 43.6C161.6 41.6 161.2 40.5 161.2 40.4C160.4 38.5 157.3 31.4 152.1 19C151.4 17.4 150.2 16.5 148.4 16.5H148.3C146.9 16.5 145.8 17.1 145 18.3C144.5 19 144.3 19.7 144.3 20.5C144.3 21 144.4 21.5 144.6 22.1L156.9 50.9C157.9 53.5 159.8 54.8 162.6 54.8C165.3 54.8 167.2 53.5 168.2 50.9L180.5 22.1C180.7 21.5 180.9 21 180.9 20.5C180.9 19.7 180.7 19 180.2 18.3C179.4 17.2 178.3 16.6 176.8 16.6V16.6ZM188.9 16.6C187.7 16.6 186.8 17 186 17.8C185.2 18.6 184.8 19.5 184.8 20.7V50.9C184.8 52 185.2 53 186 53.7C186.8 54.5 187.7 54.9 188.8 54.9H188.9C190 54.9 191 54.5 191.7 53.7C192.5 52.9 192.9 52 192.9 50.9V20.6C192.9 19.5 192.5 18.5 191.7 17.7C191 17 190 16.6 188.9 16.6V16.6ZM188.9 3C187.6 3 186.5 3.5 185.6 4.4C184.7 5.3 184.2 6.4 184.2 7.7C184.2 9 184.7 10.1 185.6 11C186.5 11.9 187.6 12.4 188.9 12.4C190.2 12.4 191.2 11.9 192.1 11C193 10.1 193.5 9 193.5 7.7C193.5 6.4 193 5.3 192.1 4.4C191.2 3.5 190.1 3 188.9 3ZM225.1 21.3C222 18.2 218.2 16.6 213.8 16.6C209.4 16.6 205.6 18.2 202.5 21.3C199.4 24.4 197.8 28.2 197.8 32.7V50.9C197.8 52 198.2 53 199 53.7C199.8 54.5 200.7 54.9 201.8 54.9H201.9C203 54.9 203.9 54.5 204.7 53.7C205.5 52.9 205.9 52 205.9 50.9V32.7C205.9 30.5 206.7 28.6 208.2 27.1C209.7 25.6 211.6 24.8 213.8 24.8C216 24.8 217.8 25.6 219.4 27.1C220.9 28.6 221.7 30.5 221.7 32.7V50.9C221.7 52 222.1 53 222.9 53.7C223.7 54.5 224.6 54.9 225.7 54.9H225.8C226.9 54.9 227.9 54.5 228.6 53.7C229.4 52.9 229.8 52 229.8 50.9V32.7C229.8 28.2 228.2 24.5 225.1 21.3Z" fill="white"/>
<path d="M143 30.1C141.7 26.4 139.7 24.1 139.7 24.1C139.7 24.1 138 21.5 134.6 19.4C132.3 17.9 129.1 16.6 125.3 16.6C122.5 16.6 119.3 17.2 115.8 18.9C112.4 20.8 112.2 21 108.6 24.4C108 25 107 26.1 106.6 26.6C106.6 26.6 103.6 30.1 100.2 34C96.9 37.8 93.2 42 91.5 43.6C89.8 45.3 87.2 47 84.4 47.7C81.2 48.5 77.7 48 74.7 45.1C72.2 42.6 70.9 39.6 70.9 36.4C70.9 33.3 72.2 30.2 74.9 27.6C79.7 22.8 86.7 25 85.5 24.8C86.8 25.1 87.8 25.5 88.5 25.8C89.4 26.3 90.3 27 90.5 27.2C91.9 28.4 93.5 30.1 94.4 31C98.2 34.7 102.7 30 101 26.5C100.7 26.2 98.1 21.8 92.5 19C89.8 17.6 86.4 16.6 82.3 16.6C81 16.7 77.6 17 74 18.7C71.5 19.9 68.9 21.8 66.8 24.7C63.2 29.6 61.9 36.2 64.1 42.4C65.4 46.1 67.4 48.4 67.4 48.4C67.4 48.4 69.1 51 72.5 53.1C74.8 54.6 78 55.9 81.8 55.9C84.6 55.9 87.8 55.3 91.3 53.6C94.7 51.7 94.9 51.5 98.5 48.1C100.9 45.7 103.5 42.9 105.8 40.3C109.3 36.3 112.2 32.7 112.7 32.1C113.2 31.6 115.1 29.5 115.7 28.9C117.4 27.2 120 25.5 122.8 24.8C126 24 129.5 24.5 132.5 27.4C135 29.9 136.3 32.9 136.3 36.1C136.3 39.1 135 42.3 132.3 44.9C127.5 49.7 120.5 47.5 121.7 47.7C120.4 47.4 119.4 47 118.7 46.7C117.8 46.2 116.9 45.5 116.7 45.3C115.3 44.1 113.7 42.4 112.8 41.5C109 37.8 104.5 42.5 106.2 46C106.5 46.3 109.1 50.7 114.7 53.5C117.4 54.9 120.8 55.9 124.9 55.9C126.2 55.8 129.6 55.5 133.2 53.8C135.7 52.6 138.3 50.7 140.4 47.8C143.9 42.9 145.2 36.3 143 30.1V30.1Z" fill="#17C314"/>
</svg>
